<?xml version="1.0" encoding="UTF-8"?>
<svg version="1.1" xmlns="http://www.w3.org/2000/svg" width="16" height="16">
<path d="M0 0 C4.95 0 9.9 0 15 0 C15.93391785 4.66958927 15.80917656 7.41466617 15 12 C14.25234375 12.03738281 13.5046875 12.07476562 12.734375 12.11328125 C11.74953125 12.17902344 10.7646875 12.24476562 9.75 12.3125 C8.77546875 12.37050781 7.8009375 12.42851562 6.796875 12.48828125 C3.55938069 12.86564765 3.55938069 12.86564765 0 16 C0 10.72 0 5.44 0 0 Z M1 2 C1 5.3 1 8.6 1 12 C6.94 11.505 6.94 11.505 13 11 C13.33 9.68 13.66 8.36 14 7 C12.35 7.66 10.7 8.32 9 9 C9.62388892 5.38144425 10.1709277 4.8290723 13 2 C9.04 2 5.08 2 1 2 Z " fill="#000000" transform="translate(0,0)"/>
<path d="M0 0 C1.65 0 3.3 0 5 0 C5 0.33 5 0.66 5 1 C3.35 1 1.7 1 0 1 C0 0.67 0 0.34 0 0 Z " fill="#000000" transform="translate(3,8)"/>
</svg>
